<svg width="0" height="0" fill="none" style="visibility: hidden; position: absolute;" aria-hidden="true">
    <symbol id="audio-off" xmlns="http://www.w3.org/2000/svg" x="0px" y="0px" width="64px" height="64px" viewBox="0 0 64 64" enable-background="new 0 0 64 64" xml:space="preserve">
        <path d="M32,5c14.888,0,27,12.112,27,27S46.888,59,32,59S5,46.888,5,32S17.112,5,32,5 M32,2C15.433,2,2,15.432,2,32 c0,16.568,13.433,30,30,30s30-13.432,30-30C62,15.432,48.567,2,32,2L32,2z"/>
        <path d="M41.49,19.225c-0.686,0-1.452,0.208-2.26,0.648l-2.844,1.552l2.238-8.355c0.215-0.8-0.261-1.623-1.061-1.837 c-0.801-0.216-1.623,0.262-1.837,1.061l-2.979,11.116L28.916,25.5H21c-2.75,0-5,2.25-5,5v3c0,2.75,2.25,5,5,5h7.706l-3.331,12.431 c-0.215,0.8,0.261,1.622,1.061,1.836c0.537,0.145,1.084-0.022,1.449-0.389c0.181-0.18,0.317-0.408,0.388-0.672l3.169-11.828 l7.789,4.249c0.808,0.44,1.574,0.648,2.26,0.648c1.774,0,3.008-1.396,3.008-3.775V23C44.498,20.62,43.265,19.225,41.49,19.225z M29.299,35.5c-0.211,0-1.283,0-2.383,0H21c-1.1,0-2-0.9-2-2v-3c0-1.1,0.9-2,2-2h5.916c1.1,0,2.172,0,2.383,0 c0.21,0,0.533-0.082,0.718-0.184c0.157-0.085,0.86-0.469,1.66-0.905l-2.175,8.118C29.432,35.519,29.356,35.5,29.299,35.5z M41.498,39.946c0,1.1-0.79,1.569-1.756,1.042l-7.502-4.092l3.073-11.469l4.429-2.416c0.966-0.527,1.756-0.058,1.756,1.042V39.946z"/>
    </symbol>
    <symbol id="audio" xmlns="http://www.w3.org/2000/svg" x="0px" y="0px" width="64px" height="64px" viewBox="0 0 64 64" enable-background="new 0 0 64 64" xml:space="preserve">
        <path d="M32,5c14.888,0,27,12.112,27,27S46.888,59,32,59S5,46.888,5,32S17.112,5,32,5 M32,2C15.433,2,2,15.432,2,32 c0,16.568,13.433,30,30,30s30-13.432,30-30C62,15.432,48.567,2,32,2L32,2z"/>
        <path d="M41.49,19.225c-0.686,0-1.452,0.208-2.26,0.648L28.916,25.5H21c-2.75,0-5,2.25-5,5v3c0,2.75,2.25,5,5,5h7.916l10.314,5.627 c0.808,0.44,1.574,0.648,2.26,0.648c1.774,0,3.008-1.396,3.008-3.775V23C44.498,20.62,43.265,19.225,41.49,19.225z M41.498,39.946 c0,1.1-0.79,1.569-1.756,1.042l-7.634-4.164c-0.966-0.527-1.907-1.04-2.092-1.141c-0.185-0.102-0.508-0.184-0.718-0.184 c-0.211,0-1.283,0-2.383,0H21c-1.1,0-2-0.9-2-2v-3c0-1.1,0.9-2,2-2h5.916c1.1,0,2.172,0,2.383,0c0.21,0,0.533-0.082,0.718-0.184 c0.185-0.101,1.126-0.613,2.092-1.141l7.634-4.164c0.966-0.527,1.756-0.058,1.756,1.042V39.946z"/>
    </symbol>
    <symbol id="first-track" xmlns="http://www.w3.org/2000/svg" x="0px" y="0px" width="64px" height="64px" viewBox="0 0 64 64" enable-background="new 0 0 64 64" xml:space="preserve">
        <path d="M32,5c14.888,0,27,12.112,27,27S46.888,59,32,59S5,46.888,5,32S17.112,5,32,5 M32,2C15.433,2,2,15.432,2,32 c0,16.568,13.433,30,30,30s30-13.432,30-30C62,15.432,48.567,2,32,2L32,2z"/>
        <path d="M20.5,22.563v18.875c0,2.75,2.25,5,5,5s5-2.25,5-5v-3.945l7.979,5.222C41.241,44.521,43.5,43.3,43.5,40V23.125 c0-3.3-2.256-4.516-5.012-2.702L30.5,25.68v-3.117c0-2.75-2.25-5-5-5S20.5,19.813,20.5,22.563z M23.5,22.563c0-1.1,0.9-2,2-2 s2,0.9,2,2v3.091c0,1.1,0,2.808,0,3.796c0,0.987,0.752,1.3,1.671,0.695l9.658-6.354c0.919-0.604,1.671-0.199,1.671,0.9v13.761 c0,1.1-0.753,1.507-1.674,0.905l-9.652-6.318c-0.921-0.602-1.674-0.288-1.674,0.698c0,0.985,0,2.692,0,3.792v3.909c0,1.1-0.9,2-2,2 s-2-0.9-2-2V34.91c0-1.1,0-2.591,0-3.313s0-2.213,0-3.313V22.563z"/>
    </symbol>
    <symbol id="forward" xmlns="http://www.w3.org/2000/svg" x="0px" y="0px" width="64px" height="64px" viewBox="0 0 64 64" enable-background="new 0 0 64 64" xml:space="preserve">
        <path d="M32,5c14.888,0,27,12.112,27,27S46.888,59,32,59S5,46.888,5,32S17.112,5,32,5 M32,2C15.433,2,2,15.432,2,32 c0,16.568,13.433,30,30,30s30-13.432,30-30C62,15.432,48.567,2,32,2L32,2z"/>
        <path d="M47.988,28.741L36.012,20.86C33.256,19.047,31,20.263,31,23.563v2.555l-7.988-5.257C20.256,19.047,18,20.263,18,23.563 v16.875c0,3.3,2.259,4.521,5.021,2.714L31,37.93v2.508c0,3.3,2.259,4.521,5.021,2.714l11.959-7.826 C50.741,33.518,50.744,30.555,47.988,28.741z M45.858,33.128l-10.185,6.665C34.753,40.396,34,39.988,34,38.889v-4.508 c0-1.1-0.753-1.507-1.674-0.905l-9.652,6.318C21.753,40.396,21,39.988,21,38.889V25.128c0-1.1,0.752-1.505,1.671-0.9l9.658,6.354 c0.919,0.604,1.671,0.199,1.671-0.9v-4.554c0-1.1,0.752-1.505,1.671-0.9l10.19,6.705C46.78,31.537,46.779,32.525,45.858,33.128z"/>
    </symbol>
    <symbol id="last-track" xmlns="http://www.w3.org/2000/svg" x="0px" y="0px" width="64px" height="64px" viewBox="0 0 64 64" enable-background="new 0 0 64 64" xml:space="preserve">
        <path d="M32,5c14.888,0,27,12.112,27,27S46.888,59,32,59S5,46.888,5,32S17.112,5,32,5 M32,2C15.433,2,2,15.432,2,32 c0,16.568,13.433,30,30,30s30-13.432,30-30C62,15.432,48.567,2,32,2L32,2z"/>
        <path d="M38.5,17.563c-2.75,0-5,2.25-5,5v3.117l-7.988-5.257c-2.756-1.813-5.012-0.598-5.012,2.702V40 c0,3.3,2.259,4.521,5.021,2.714l7.979-5.222v3.945c0,2.75,2.25,5,5,5s5-2.25,5-5V22.563C43.5,19.813,41.25,17.563,38.5,17.563z M40.5,28.285c0,1.1,0,2.591,0,3.313s0,2.213,0,3.313v6.527c0,1.1-0.9,2-2,2s-2-0.9-2-2v-3.909c0-1.1,0-2.807,0-3.792 c0-0.986-0.753-1.3-1.674-0.698l-9.652,6.318c-0.921,0.602-1.674,0.194-1.674-0.905V24.69c0-1.1,0.752-1.505,1.671-0.9l9.658,6.354 c0.919,0.604,1.671,0.292,1.671-0.695c0-0.988,0-2.696,0-3.796v-3.091c0-1.1,0.9-2,2-2s2,0.9,2,2V28.285z"/>
    </symbol>
    <symbol id="pause" xmlns="http://www.w3.org/2000/svg" x="0px" y="0px" width="64px" height="64px" viewBox="0 0 64 64" enable-background="new 0 0 64 64" xml:space="preserve">
        <path d="M32,5c14.888,0,27,12.112,27,27S46.888,59,32,59S5,46.888,5,32S17.112,5,32,5 M32,2C15.433,2,2,15.432,2,32 c0,16.568,13.433,30,30,30s30-13.432,30-30C62,15.432,48.567,2,32,2L32,2z"/>
        <g>
            <path d="M39,17.563c-2.75,0-5,2.25-5,5v18.875c0,2.75,2.25,5,5,5s5-2.25,5-5V22.563C44,19.813,41.75,17.563,39,17.563z M41,41.438 c0,1.1-0.9,2-2,2s-2-0.9-2-2V22.563c0-1.1,0.9-2,2-2s2,0.9,2,2V41.438z"/>
            <path d="M25,17.563c-2.75,0-5,2.25-5,5v18.875c0,2.75,2.25,5,5,5s5-2.25,5-5V22.563C30,19.813,27.75,17.563,25,17.563z M27,41.438 c0,1.1-0.9,2-2,2s-2-0.9-2-2V22.563c0-1.1,0.9-2,2-2s2,0.9,2,2V41.438z"/>
        </g>
    </symbol>
    <symbol id="play" xmlns="http://www.w3.org/2000/svg" x="0px" y="0px" width="64px" height="64px" viewBox="0 0 64 64" enable-background="new 0 0 64 64" xml:space="preserve">
        <path d="M32,5c14.888,0,27,12.112,27,27S46.888,59,32,59S5,46.888,5,32S17.112,5,32,5 M32,2C15.433,2,2,15.432,2,32 c0,16.568,13.433,30,30,30s30-13.432,30-30C62,15.432,48.567,2,32,2L32,2z"/>
        <path d="M43.987,28.745L28.013,18.232C25.256,16.418,23,17.635,23,20.935V43.06c0,3.3,2.259,4.521,5.021,2.714l15.959-10.444 C46.741,33.521,46.744,30.559,43.987,28.745z M41.858,33.124l-14.185,9.283C26.753,43.01,26,42.603,26,41.503V22.491 c0-1.1,0.752-1.505,1.671-0.9l14.19,9.338C42.78,31.533,42.779,32.521,41.858,33.124z"/>
    </symbol>
    <symbol id="replay" xmlns="http://www.w3.org/2000/svg" x="0px" y="0px" width="64px" height="64px" viewBox="0 0 64 64" enable-background="new 0 0 64 64" xml:space="preserve">
        <path d="M32,5c14.888,0,27,12.112,27,27S46.888,59,32,59S5,46.888,5,32S17.112,5,32,5 M32,2C15.433,2,2,15.432,2,32 c0,16.568,13.433,30,30,30s30-13.432,30-30C62,15.432,48.567,2,32,2L32,2z"/>
        <path d="M49.566,44.698c-0.065-0.825-0.789-1.44-1.613-1.376l-2.126,0.17c6.064-7.306,5.433-18.188-1.623-24.704 c-7.291-6.734-18.702-6.28-25.437,1.013c-6.733,7.291-6.279,18.702,1.013,25.436c3.036,2.803,6.979,4.487,11.101,4.741 c0.827,0.051,1.538-0.578,1.589-1.405c0.052-0.826-0.577-1.54-1.405-1.589c-3.433-0.211-6.719-1.614-9.249-3.951 c-6.078-5.612-6.455-15.12-0.843-21.197c5.611-6.077,15.119-6.456,21.196-0.843c5.813,5.368,6.396,14.295,1.525,20.379l-0.001-1.982 c0-0.827-0.672-1.5-1.499-1.499c-0.83,0-1.501,0.673-1.5,1.5v5.896c-0.001,0.418,0.176,0.817,0.482,1.101 c0.307,0.284,0.72,0.427,1.137,0.394l5.876-0.468C49.016,46.247,49.633,45.524,49.566,44.698z"/>
    </symbol>
    <symbol id="rewind" xmlns="http://www.w3.org/2000/svg" x="0px" y="0px" width="64px" height="64px" viewBox="0 0 64 64" enable-background="new 0 0 64 64" xml:space="preserve">
        <path d="M32,5c14.888,0,27,12.112,27,27S46.888,59,32,59S5,46.888,5,32S17.112,5,32,5 M32,2C15.433,2,2,15.432,2,32 c0,16.568,13.433,30,30,30s30-13.432,30-30C62,15.432,48.567,2,32,2L32,2z"/>
        <path d="M16.021,35.325l11.959,7.826c2.762,1.808,5.02,0.586,5.02-2.714V37.93l7.98,5.222c2.762,1.808,5.02,0.586,5.02-2.714V23.563 c0-3.3-2.256-4.516-5.012-2.702L33,26.117v-2.555c0-3.3-2.256-4.516-5.012-2.702l-11.977,7.881 C13.256,30.555,13.259,33.518,16.021,35.325z M18.139,30.933l10.191-6.705c0.918-0.604,1.67-0.199,1.67,0.9v4.554 c0,1.1,0.752,1.505,1.672,0.9l9.658-6.354c0.918-0.604,1.67-0.199,1.67,0.9v13.761c0,1.1-0.752,1.507-1.674,0.905l-9.652-6.318 C30.754,32.874,30,33.281,30,34.381v4.508c0,1.1-0.752,1.507-1.674,0.904l-10.184-6.665C17.221,32.525,17.221,31.537,18.139,30.933z"/>
    </symbol>
    <symbol id="stop" xmlns="http://www.w3.org/2000/svg" x="0px" y="0px" width="64px" height="64px" viewBox="0 0 64 64" enable-background="new 0 0 64 64" xml:space="preserve">
        <path d="M32,5c14.888,0,27,12.112,27,27S46.888,59,32,59S5,46.888,5,32S17.112,5,32,5 M32,2C15.433,2,2,15.432,2,32 c0,16.568,13.433,30,30,30s30-13.432,30-30C62,15.432,48.567,2,32,2L32,2z"/>
        <path d="M41.438,17.563H22.563c-2.75,0-5,2.25-5,5v18.875c0,2.75,2.25,5,5,5h18.875c2.75,0,5-2.25,5-5V22.563 C46.438,19.813,44.188,17.563,41.438,17.563z M43.438,40.438c0,1.65-1.35,3-3,3H23.563c-1.65,0-3-1.35-3-3V23.563c0-1.65,1.35-3,3-3 h16.875c1.65,0,3,1.35,3,3V40.438z"/>
    </symbol>
</svg>